<?xml version="1.0" encoding="utf-8"?>
<!-- Generator: Adobe Illustrator 27.0.0, SVG Export Plug-In . SVG Version: 6.00 Build 0)  -->
<svg version="1.1" id="Слой_1" xmlns="http://www.w3.org/2000/svg" xmlns:xlink="http://www.w3.org/1999/xlink" x="0px" y="0px"
	 viewBox="0 0 643.6 408.1" style="enable-background:new 0 0 643.6 408.1;" xml:space="preserve">
<style type="text/css">
	.st0{fill:#020203;}
</style>
<g id="color_index_0_00000031918534856609609140000001812470753580304272_">
	<path class="st0" d="M242.4,123.3c9-21.3,24.9-30.7,29.1-32.9c-0.4-2.7-0.8-5.7-0.9-8.9c-6.2,3.2-18.4,9.7-27.7,20.8
		c-10.1,12.2-12.3,45.6-8.2,65.3C234.7,156.3,236,138.5,242.4,123.3z"/>
	<path class="st0" d="M265.9,101.9c-5.7,5.5-13.3,14.2-18.1,25.5c-3.3,7.7-5.7,17.2-7.3,25.9c14.8-17.3,46.4-14.6,60.1-13.6
		c12.8,0.8,17.6-2.6,19-3.7C319.5,136,282.4,145.9,265.9,101.9z"/>
	<path class="st0" d="M272.7,96c-1.1,0.8-3.5,2.7-6.4,5.5c2.9,7.2,17.9,38.7,53.2,31.7v-10.3c-6.9-2.3-32.9-12.3-45.5-34.3
		c1.3,9.2,7.7,34.9,38.8,34.2C312.8,122.7,281.4,130.3,272.7,96z"/>
	<path class="st0" d="M276.3,268.7c4.8-8.1,9.3-21.9,2.4-41.4c0,0,0,0,0,0c-1.3-2.5-2.8-5-4.4-7.1c-5.2-7.1-13.3-31.2-9.6-66.7
		c0,0,7.7-8.4,18.1-11.7c-6.3-0.1-13,0.1-19,1c-12.4,1.9-20.5,9.5-23.8,13.3c-2.2,12.4-3,22.4-3,22.4s-0.1,10.2,7.2,23.8
		c7.3,13.6,17.6,22.5,18.4,32.2C263.4,244.1,252.6,255.1,276.3,268.7z"/>
	<path class="st0" d="M354.1,231.2c0,0-12.3,23.6-31.5,28c-19.2,4.4-33.2-12.6-38.3-19.8c0,0,7.5,33.9-17.7,44.2
		c-11.1,5.4-18.3,6.2-28.7,6.9c-10.9,0.7-17.5,0.9-23.4,3.4c0,0,54.9,7.9,71.6,29.6c0,0-0.4-9.6,16.8-21.7
		c17.2-12.1,47-37,53.7-50.7C356.6,251.2,350.6,248.2,354.1,231.2z"/>
	<path class="st0" d="M319.4,120.1c-0.1-4.3-0.3-11.6-0.4-20.4c-4.5-1-21.7-7.3-20.4-43.9c-1.9-3.4-5.2-11.3-5-24.2c0,0,0,0,0,0
		c-0.6,0.8-19.6,25.8-19,42.1C275,90.1,290.3,107,319.4,120.1z"/>
	<path class="st0" d="M318.9,97.7c-0.1-8.7-0.2-18.7-0.2-28.9c-10.7-4.3-15.3-10.7-17.2-15.1c-0.6,3.9-0.9,8.1-0.6,12.9
		C302.4,85.3,310.2,94.3,318.9,97.7z"/>
	<path class="st0" d="M318.8,66.8c0.1-17.8,0.6-35.7,1.9-46.9c0,0,1,21.9,1.3,52c3.1-2.1,14.9-10.4,18.3-21.6
		c-0.6-2.4-1.4-4.6-2.4-6.5c-4.5-8.5-11.5-15.7-17.3-30.8c-2.2,10.9-13.8,19.2-18.2,36.2C306.1,60.3,315.5,65.4,318.8,66.8z"/>
	<path class="st0" d="M322,73.6c0.1,7.8,0.1,16.1,0.1,24.8c13.3-5.4,20.8-27.1,18.9-43.7C339.4,58.5,334.5,66.5,322,73.6z"/>
	<path class="st0" d="M322.2,101c0,5.7-0.1,11.5-0.1,17.4c2.5-5.5,16.1-15.6,20.1-18.8c4-3.2,14.8-11.4,18.2-27.8
		c3.2-15.7-4.1-28.1-4.7-29c0,0,0-0.1,0-0.1s0,0,0,0c0,0,0-0.1-0.1-0.1c0,0,0,0,0,0s0,0,0,0c-0.3,0.4-8.9,13-11.3,23
		C342,75.5,337.9,95.1,322.2,101z"/>
	<path class="st0" d="M342.9,102.7c-8.5,5.7-13.9,11.6-13.9,11.6c5.6-2.6,12.5-4.4,18.5-6c10.3-2.7,21.4-10,20.1-31
		c-0.7-11-3.9-20-6.9-26.1c0,0,0,0,0,0C369.8,79.5,351.4,96.9,342.9,102.7z"/>
	<path class="st0" d="M396,179.6c1.7-20.5-9.3-37.8-29.7-44.4c-18.3-5.9-40-1.2-44.3-0.2c0.2,4.1,1.3,5.8,1.4,5.9v0h0
		c1.8,2,4.7,3.9,9.6,5.1c12.7,3.1,35,13.3,41.7,27.7c6.7,14.5,1.9,27.2-9.1,30.3c0,0-1.6,10.3-7.1,21.2
		C372.9,222,393.6,207.9,396,179.6z"/>
	<path class="st0" d="M346.6,110.7c-9.8,3-21.2,2.7-23.7,14.3c-0.6,2.9-0.9,5.3-1,7.3c46.4-8,61.8,6.4,65.7,11.4
		c-28.1-42-60.9-20.5-62.5-19.4c25.7-21.4,58.4-1,70,28c11.5,28.7-5,52.8-5.4,53.4c4.7-5.1,9.3-11.6,12.9-19.6
		c3.6-7.8,4.7-16.6,2.9-25.1c-3.1-14.6-14-36.1-50.3-48.4c0,0,49.3,7.8,54.3,51.4c6.8-33.1-4.7-51.8-14-55.7
		c-10.5-4.4-24.3-13.5-26.8-26.9C367.6,105.2,356.4,107.7,346.6,110.7z"/>
	<path class="st0" d="M388.8,145.4c0-0.1-0.4-0.7-1.1-1.6C388.1,144.4,388.4,144.9,388.8,145.4z"/>
	<path class="st0" d="M365.9,165.3c6.6,10.9,2.5,35.4,2.5,35.4C384.7,182.9,365.9,165.3,365.9,165.3z"/>
	<path class="st0" d="M333.1,228.5c-1.3-0.2-3.4-0.7-5.7-2.1c-3.4-2.1-6.2-4-10.7-1.8c-1.1,0.6-2.5,0.6-3.6,0
		c-4.4-2.2-7.2-0.2-10.7,1.8c-2.3,1.4-4.4,1.9-5.7,2.1c-0.7,0.1-0.9,1-0.4,1.4c3.5,2.5,11.4,0.4,13.8,1.3c2.7,1.1,4.7,1,4.7,1
		s2,0.1,4.7-1c2.4-0.9,10.3,1.1,13.8-1.3C334,229.5,333.8,228.6,333.1,228.5z"/>
	<path class="st0" d="M327.5,233.8C323,238,315,238,315,238s-8.1,0-12.5-4.2c-0.3-0.3-0.9,0-0.8,0.5c0.8,3.1,3.7,9.1,13.3,9.1
		c9.6,0,12.4-6,13.3-9.1C328.4,233.8,327.8,233.5,327.5,233.8z"/>
	<path class="st0" d="M297.4,184.9c-0.1-0.5-0.6-1.8-1-2.5c0.2-0.1,0.4-0.2,0.6-0.3c0.5-0.3,1-0.3,1.6-0.3c3.9,0.5,4.4-0.9,4.4-0.9
		c-2.9-3.5-13.7,0.2-20.2-1.6c-4.5-1.2-9.4-4.5-11.9-6.4c-0.4-0.3-0.9,0.2-0.6,0.6c1.2,1.7,2.9,3.5,4.9,5.1c-1.4,0-2.6-0.1-3.4-0.3
		c-0.3,0-0.6,0.4-0.3,0.6c1.7,1.7,4.8,1.7,6.3,1.5c0.1,0.1,0.2,0.1,0.3,0.2c-2.1,1-4.2,0.7-4.9,1c-0.8,0.3,0.3,1.5,2.6,1.5
		c1.9,0,4.1-0.7,4.8-1c0,0,0.1,0,0.1,0.1c-0.8,0.7-3.7,3.2-2.5,3.3c1.2,0.1,3.5-1.7,4.4-2.4c0,0,0.1,0,0.1,0
		c-0.7,0.9-2.7,3.4-1.7,3.6c0.9,0.2,2.6-2,3.4-3c0,0,0.1,0,0.1,0c-0.5,1.1-1.5,3.7-0.9,3.8c0.6,0.1,2.2-2.2,2.9-3.4
		c0.1,0,0.1,0,0.2,0c-0.4,1.2-1.1,3.7-0.4,4c0.7,0.3,2.1-2.6,2.7-4c0.1,0,0.2,0,0.3,0c0,1.2,0.2,3.7,0.7,3.8
		c0.6,0.1,1.3-2.8,1.5-4.1c0.1,0,0.2,0,0.3-0.1c0.3,1,0.9,2.9,1.7,3.1c0.8,0.2,0.7-2.7,0.6-3.7c0.1,0,0.1,0,0.2,0
		C296.6,186.1,297.5,185.6,297.4,184.9z"/>
	<path class="st0" d="M300.1,165c-1.6-0.7-14-5.9-19-5.5c-5,0.5-12.7,4.1-12.7,4.1s6.2-0.1,11-0.8c3.1-0.4,17.1,5.8,21.2,7
		c4.1,1.2,5.8,1.5,5.8,1.5S301.7,165.7,300.1,165z"/>
	<path class="st0" d="M358.5,179c0.2-0.2,0-0.7-0.3-0.6c-0.8,0.1-2,0.2-3.4,0.3c2-1.6,3.7-3.4,4.9-5.1c0.3-0.4-0.2-0.9-0.6-0.6
		c-2.5,1.9-7.4,5.1-11.9,6.4c-6.5,1.8-17.3-1.9-20.2,1.6c0,0,0.5,1.5,4.4,0.9c0.5-0.1,1.1,0,1.6,0.3c0.2,0.1,0.4,0.2,0.6,0.3
		c-0.3,0.7-0.9,2-1,2.5c-0.1,0.7,0.8,1.3,3-1.7c0.1,0,0.1,0,0.2,0c-0.1,0.9-0.2,3.9,0.6,3.7c0.7-0.2,1.4-2.1,1.7-3.1
		c0.1,0,0.2,0,0.3,0.1c0.3,1.3,0.9,4.1,1.5,4.1c0.6-0.1,0.7-2.5,0.7-3.8c0.1,0,0.2,0,0.3,0c0.6,1.4,2,4.3,2.7,4c0.7-0.3,0-2.7-0.4-4
		c0.1,0,0.1,0,0.2,0c0.8,1.2,2.4,3.6,2.9,3.4c0.6-0.2-0.4-2.7-0.9-3.8c0,0,0.1,0,0.1,0c0.8,1,2.5,3.2,3.4,3c1-0.2-1-2.7-1.7-3.6
		c0,0,0.1,0,0.1,0c0.9,0.7,3.3,2.5,4.4,2.4c1.2-0.1-1.7-2.6-2.5-3.3c0,0,0.1,0,0.1-0.1c0.8,0.3,2.9,1,4.8,1c2.4,0,3.4-1.2,2.6-1.5
		c-0.7-0.3-2.8,0-4.9-1c0.1-0.1,0.2-0.1,0.3-0.2C353.8,180.6,356.8,180.7,358.5,179z"/>
	<path class="st0" d="M350.5,162.9c4.8,0.7,11,0.8,11,0.8s-7.7-3.6-12.7-4.1c-5-0.5-17.4,4.7-19,5.5c-1.6,0.7-6.4,6.4-6.4,6.4
		s1.7-0.3,5.8-1.5C333.4,168.7,347.4,162.5,350.5,162.9z"/>
	<path class="st0" d="M306.9,210.8c0.7-0.1,1.5-0.1,2.3-0.1c0.8,0,1.5,0,2.3,0.1c0.4,0,0.7-0.3,0.6-0.7c-0.3-1.4-1.5-2.5-2.9-2.5
		c-1.4,0-2.5,1-2.9,2.5C306.2,210.5,306.5,210.9,306.9,210.8z"/>
	<path class="st0" d="M320.8,207.7c-1.4,0-2.5,1-2.9,2.5c-0.1,0.4,0.2,0.7,0.6,0.7c0.7-0.1,1.5-0.1,2.3-0.1c0.8,0,1.5,0,2.3,0.1
		c0.4,0,0.7-0.3,0.6-0.7C323.3,208.7,322.2,207.7,320.8,207.7z"/>
</g>
<path class="st0" d="M48.9,277.3c-5.3,0-10.1-1.3-14.4-3.9s-7.6-6.1-10-10.5c-2.4-4.4-3.6-9.3-3.6-14.7l0,0c0-5.1,1.1-9.8,3.2-14
	s5.1-7.5,8.9-9.9c3.9-2.4,8.3-3.6,13.4-3.6l0,0c4.7,0,8.7,0.6,12.1,1.8c3.3,1.2,5.8,2.8,7.4,4.7l0,0c0.9,1.1,1.5,2.6,1.7,4.4
	c0.2,1.8,0.4,4,0.4,6.6l0,0h-1.9c-1-4.8-2.9-8.4-5.8-10.7c-2.8-2.3-6.6-3.5-11.5-3.5l0,0c-4.3,0-7.9,1.1-10.8,3.4
	c-2.9,2.3-5,5.2-6.3,8.9c-1.3,3.7-2,7.6-2,11.9l0,0c0,9.2,1.7,15.8,5.2,19.8c3.5,4.1,8.1,6.1,13.9,6.1l0,0c2.6,0,4.9-0.2,6.8-0.7
	c1.9-0.5,3.7-1.1,5.3-2l0,0v-14.2c0-2.9,0.9-5.2,2.8-6.9c1.8-1.8,5.6-2.6,11.2-2.6l0,0v1.7c-2.3,0-3.8,0.6-4.6,1.9
	c-0.8,1.2-1.2,3.2-1.2,5.8l0,0v15.1c-2.9,1.8-6,3.1-9.3,3.9C56.5,276.9,52.9,277.3,48.9,277.3L48.9,277.3z M85.5,275.7v-43.5
	c0-2.8-0.4-4.8-1.1-6.1c-0.8-1.3-2.3-2-4.5-2l0,0h-1.5v-1.9h7.9c1.9,0,3.4,0.3,4.5,0.8s1.8,1.5,2.2,2.9c0.4,1.4,0.7,3.5,0.7,6.2l0,0
	v43.5H85.5z M124.6,276.5c-3.7,0-7-0.9-9.7-2.6c-2.8-1.8-4.9-4.1-6.3-7.1c-1.5-3-2.2-6.4-2.2-10.1l0,0c0-3.7,0.7-7.1,2.2-10.1
	c1.5-3,3.6-5.4,6.3-7.1c2.8-1.8,6-2.6,9.7-2.6l0,0c3.7,0,7,0.9,9.7,2.6c2.8,1.8,4.9,4.1,6.3,7.1c1.5,3,2.2,6.4,2.2,10.1l0,0
	c0,3.7-0.7,7.1-2.2,10.1c-1.5,3-3.6,5.4-6.3,7.1C131.6,275.6,128.3,276.5,124.6,276.5L124.6,276.5z M124.6,273.2
	c2.9,0,5.3-1.6,7-4.7c1.8-3.1,2.7-7.1,2.7-11.8l0,0c0-4.8-0.9-8.7-2.7-11.8c-1.8-3.1-4.1-4.7-7-4.7l0,0c-2.9,0-5.3,1.6-7.1,4.7
	c-1.8,3.1-2.7,7.1-2.7,11.8l0,0c0,4.8,0.9,8.7,2.7,11.8C119.3,271.6,121.7,273.2,124.6,273.2L124.6,273.2z M173.9,276.5
	c-2.6,0-4.8-0.4-6.6-1.3c-1.7-0.9-3.1-1.9-4-3.2l0,0h-0.4l-2.8,3.6h-4.8v-43.5c0-2.8-0.4-4.8-1.1-6.1c-0.8-1.3-2.3-2-4.5-2l0,0h-1.5
	v-1.9h7.9c1.9,0,3.4,0.3,4.5,0.8s1.8,1.5,2.2,2.9c0.4,1.4,0.7,3.5,0.7,6.2l0,0v7.1c3.1-1.6,6.4-2.4,9.7-2.4l0,0
	c5.2,0,9.1,1.8,11.9,5.5c2.7,3.7,4.1,8.5,4.1,14.3l0,0c0,5.8-1.3,10.5-4,14.3C182.5,274.6,178.7,276.5,173.9,276.5L173.9,276.5z
	 M171.6,273.2c3,0,5.3-1.5,6.7-4.5c1.5-3,2.2-7,2.2-12l0,0c0-5-0.8-9-2.3-12c-1.5-3-4-4.5-7.2-4.5l0,0c-1.2,0-2.3,0.2-3.5,0.7
	c-1.1,0.4-2.5,1-4.1,1.8l0,0v25.6C165.4,271.5,168.1,273.2,171.6,273.2L171.6,273.2z M211.2,276.5c-3.3,0-6.2-0.9-8.6-2.8
	c-2.5-1.9-3.7-4.7-3.7-8.5l0,0c0-4.1,1.8-7,5.5-8.8c3.7-1.8,8.8-2.7,15.5-2.7l0,0h2.1c0-5.1-0.7-8.7-2.1-10.6c-1.4-2-3.5-3-6.2-3
	l0,0c-2.3,0-4.2,0.5-5.6,1.6c-1.4,1.1-2.4,2.9-3,5.5l0,0h-3.9c0-1.8,0.1-3.3,0.3-4.5c0.2-1.1,0.8-2.2,1.7-3.1l0,0
	c1-1,2.6-1.7,4.7-2.1c2.2-0.5,4.7-0.7,7.4-0.7l0,0c4.6,0,8.3,1.2,10.9,3.7c2.6,2.5,3.9,6.9,3.9,13.3l0,0v21.9h-4.8l-2.8-3.6h-0.4
	c-1,1.2-2.4,2.3-4.2,3.2C216.1,276.1,213.8,276.5,211.2,276.5L211.2,276.5z M214.5,272.8c3.1,0,5.6-1.7,7.5-5l0,0v-10.7h-2.1
	c-4,0-7.1,0.7-9.2,2.1c-2.1,1.4-3.2,3.4-3.2,6l0,0c0,2.4,0.7,4.3,2,5.6C210.8,272.1,212.5,272.8,214.5,272.8L214.5,272.8z
	 M244.6,275.7v-43.5c0-2.8-0.4-4.8-1.1-6.1c-0.8-1.3-2.3-2-4.5-2l0,0h-1.5v-1.9h7.9c1.9,0,3.4,0.3,4.5,0.8c1,0.5,1.8,1.5,2.2,2.9
	c0.4,1.4,0.6,3.5,0.6,6.2l0,0v43.5H244.6z M196.1,357.2v-43.5c0-2.8-0.4-4.8-1.1-6.1c-0.8-1.3-2.3-2-4.5-2l0,0H189v-1.9h7.9
	c1.9,0,3.4,0.3,4.5,0.8c1,0.5,1.8,1.5,2.2,2.9c0.4,1.4,0.6,3.5,0.6,6.2l0,0v40.2h28.5v3.3H196.1z M256.3,358.1
	c-3.7,0-6.8-0.9-9.4-2.6c-2.6-1.8-4.6-4.1-5.9-7.1c-1.4-3-2-6.4-2-10.1l0,0c0-3.8,0.7-7.2,2.1-10.2c1.4-3,3.3-5.3,5.8-7
	c2.5-1.7,5.4-2.6,8.7-2.6l0,0c5.3,0,9.4,1.5,12.3,4.5c2.9,3,4.3,7.3,4.3,12.9l0,0l-0.2,3.7h-24.5c0,4.7,0.9,8.4,2.8,11.1
	c1.9,2.7,4.4,4.1,7.6,4.1l0,0c2.5,0,4.7-0.6,6.5-1.7c1.8-1.1,3.4-2.7,4.9-4.9l0,0l1.8,1.4c-1.7,2.8-3.7,4.9-6.1,6.4
	C262.5,357.3,259.7,358.1,256.3,358.1L256.3,358.1z M247.4,336.1h16.2c0-9.6-2.7-14.4-8.1-14.4l0,0c-2.3,0-4.3,1.3-5.8,3.9
	C248.2,328.2,247.4,331.7,247.4,336.1L247.4,336.1z M294,358.1c-3.3,0-6.2-0.9-8.6-2.8c-2.5-1.9-3.7-4.7-3.7-8.5l0,0
	c0-4.1,1.8-7,5.5-8.8c3.7-1.8,8.8-2.7,15.5-2.7l0,0h2.1c0-5.1-0.7-8.7-2.1-10.6c-1.4-2-3.5-3-6.2-3l0,0c-2.3,0-4.2,0.5-5.6,1.6
	c-1.4,1.1-2.4,2.9-3,5.5l0,0h-3.9c0-1.8,0.1-3.3,0.3-4.5c0.2-1.1,0.8-2.2,1.7-3.1l0,0c1-1,2.6-1.7,4.7-2.1c2.2-0.5,4.7-0.7,7.4-0.7
	l0,0c4.6,0,8.3,1.2,10.9,3.7c2.6,2.5,3.9,6.9,3.9,13.3l0,0v21.9h-4.8l-2.8-3.6h-0.4c-1,1.2-2.4,2.3-4.2,3.2
	C298.9,357.6,296.6,358.1,294,358.1L294,358.1z M297.3,354.3c3.1,0,5.6-1.7,7.5-5l0,0v-10.7h-2.1c-4,0-7.1,0.7-9.2,2.1
	c-2.1,1.4-3.2,3.4-3.2,6l0,0c0,2.4,0.7,4.3,2,5.6C293.6,353.7,295.3,354.3,297.3,354.3L297.3,354.3z M340.2,358.1
	c-4.9,0-8.7-1.9-11.3-5.6c-2.6-3.7-3.9-8.5-3.9-14.3l0,0c0-5.8,1.4-10.6,4.1-14.3s6.7-5.5,11.9-5.5l0,0c3.4,0,6.6,0.8,9.7,2.4l0,0
	v-7.1c0-2.8-0.4-4.8-1.1-6.1c-0.8-1.3-2.3-2-4.5-2l0,0h-1.5v-1.9h7.9c1.9,0,3.4,0.3,4.5,0.8c1,0.5,1.8,1.5,2.2,2.9
	c0.4,1.4,0.7,3.5,0.7,6.2l0,0v43.5H354l-2.8-3.6h-0.4c-1.1,1.3-2.4,2.4-4,3.2C345.2,357.6,343,358.1,340.2,358.1L340.2,358.1z
	 M342.5,354.7c2.1,0,3.7-0.4,4.8-1.3c1.2-0.9,2.3-2.1,3.4-3.7l0,0v-25.6c-1.6-0.8-2.9-1.4-4.1-1.8c-1.1-0.4-2.3-0.6-3.5-0.6l0,0
	c-3.3,0-5.7,1.5-7.2,4.5c-1.5,3-2.3,7-2.3,12l0,0c0,5,0.7,9,2.2,12C337.2,353.2,339.5,354.7,342.5,354.7L342.5,354.7z M388.7,358.1
	c-3.7,0-6.8-0.9-9.4-2.6c-2.6-1.8-4.6-4.1-5.9-7.1c-1.4-3-2-6.4-2-10.1l0,0c0-3.8,0.7-7.2,2.1-10.2c1.4-3,3.3-5.3,5.8-7
	c2.5-1.7,5.4-2.6,8.7-2.6l0,0c5.3,0,9.5,1.5,12.3,4.5c2.9,3,4.3,7.3,4.3,12.9l0,0l-0.2,3.7h-24.5c0,4.7,0.9,8.4,2.8,11.1
	c1.9,2.7,4.4,4.1,7.7,4.1l0,0c2.5,0,4.7-0.6,6.5-1.7c1.8-1.1,3.4-2.7,4.9-4.9l0,0l1.8,1.4c-1.7,2.8-3.7,4.9-6.1,6.4
	C394.9,357.3,392,358.1,388.7,358.1L388.7,358.1z M379.8,336.1H396c0-9.6-2.7-14.4-8.1-14.4l0,0c-2.3,0-4.3,1.3-5.8,3.9
	S379.8,331.7,379.8,336.1L379.8,336.1z M417.6,357.2v-28.1c0-2.8-0.4-4.8-1.1-6.1c-0.8-1.3-2.3-2-4.5-2l0,0h-0.8v-1.9h6.9
	c2,0,3.5,0.3,4.6,0.8c1.1,0.5,1.8,1.4,2.3,2.7l0,0c1.1-1.1,2.6-2.1,4.3-3c1.8-0.9,3.7-1.3,5.8-1.3l0,0c2.2,0,3.9,0.4,5.1,1.3l0,0
	c0.6,0.5,1.1,1,1.5,1.5c0.4,0.5,0.9,1.2,1.3,2.1l0,0l-3.5,2.7c-0.6-0.8-1.4-1.5-2.5-1.9c-1.1-0.5-2.3-0.7-3.7-0.7l0,0
	c-1.6,0-3.1,0.3-4.4,1c-1.3,0.7-2.4,1.5-3.2,2.7l0,0c0.1,0.6,0.1,1.6,0.1,2.8l0,0v27.5H417.6z"/>
<path class="st0" d="M528.2,277.3c-9.4,0-14.1-4.9-14.1-14.7l0,0v-14.3c0-2.8-0.4-4.8-1.1-6.1c-0.8-1.3-2.3-2-4.5-2l0,0h-0.8v-1.9
	h7.4c1.9,0,3.4,0.3,4.5,0.8c1,0.5,1.8,1.5,2.2,2.9c0.4,1.4,0.6,3.5,0.6,6.2l0,0v14.3c0,3.8,0.8,6.6,2.3,8.4c1.5,1.8,3.5,2.6,6,2.6
	l0,0c2.8,0,5.5-1.5,7.9-4.5l0,0v-30.7h8.1v38.1h-4.8l-2.8-3.3h-0.4c-1.2,1.2-2.7,2.2-4.5,3C532.5,276.9,530.5,277.3,528.2,277.3
	L528.2,277.3z"/>
<path class="st0" d="M573.1,277.3c-3.2,0-5.7-0.9-7.5-2.7c-1.8-1.8-2.8-4.5-2.8-8.1l0,0v-24.7h-5.4v-3.3h5.4v-7.3l4-4.9h4.1v12.1
	h9.5v3.3H571v24.8c0,2.5,0.4,4.4,1.3,5.6c0.9,1.2,2.2,1.8,4,1.8l0,0c1.3,0,2.4-0.2,3.3-0.5c0.9-0.3,1.9-0.8,2.8-1.3l0,0l0.9,1.8
	C580.6,276.2,577.2,277.3,573.1,277.3L573.1,277.3z"/>
<path class="st0" d="M595.1,292.7v-2.5c2.7,0,4.9-0.6,6.7-1.8c1.8-1.2,3.2-3.4,4.4-6.6l0,0l1.6-4.5l-13.4-31.7
	c-1.6-3.9-4.4-6.1-8.6-6.5l0,0v-1.6h7c2.4,0,4.4,0.6,6.1,1.7s3,2.7,3.9,4.8l0,0L612,266l10.1-27.5h4.1l-16,43.3
	c-1.6,4.2-3.3,7.1-5.2,8.6c-1.9,1.5-4.4,2.3-7.4,2.3l0,0H595.1z"/>
<path d="M324,313.1c2.8-6.8,6.6-12.9,11.1-18.6c7.1-9,15.2-16.9,26.3-20.7c4.5-1.6,9.4-2,14.5-3.1c0-0.2,0-1,0-1.8
	c0-11.5,0-23,0-34.5c0-0.9,0-1.8-0.1-2.6c-0.5-4-1.5-5-5.6-5.5c-0.5-0.1-0.9-0.7-1.4-1.1c0.5-0.3,0.9-0.9,1.4-0.9
	c9.6,0.2,19.1,0.3,28.7,0.7c0.5,0,3.2,0,6,1.5c4.8,2.2,7.7,6,7.6,11.7c0,5.4-3.2,8.6-7.7,10.8c-0.6,0.3-1.1,0.5-2,1
	c2,0.6,3.7,1,5.3,1.7c4.6,1.8,6.9,5.3,7.2,10.1c0.3,5.3-1,9.8-6.1,12.5c-4.7,2.5-9.8,3.3-15,3.4c-27.9,0.6-50.3,12.7-68.5,33.3
	C325.1,311.7,324.5,312.4,324,313.1z M384.1,273.9c5.1,1.4,10,1.5,14.9-0.1c4.9-1.6,7.5-5.4,7.5-10.5c-0.1-5.2-2.6-8.7-7.7-10.2
	c-4.8-1.5-9.7-0.9-14.7-0.9C384.1,259.5,384.1,266.5,384.1,273.9z M384.2,227.9c0,7.1,0,14,0,21.3c3.8-0.2,7.5-0.2,11.1-0.8
	c5.3-0.9,8.2-4.4,8.7-9.7c0.4-4.6-2-8.3-6.9-10.3C392.9,226.8,388.6,226.7,384.2,227.9z"/>
<path d="M499.2,277.5c-3.5,1.1-5.8-0.3-7.4-3.5c-4.3,4.3-9.3,5.3-14.8,4.2c-5.2-1-8.4-4.6-8.8-9.7c-0.4-5.3,1.8-9.1,7.2-10.7
	c3.8-1.1,7.8-1.5,11.7-2c1.2-0.2,2.5,0,3.9,0c0.3-3.5,0-6.7-1.5-9.7c-1.4-2.8-3.9-3.9-6.9-3.8c-3.2,0.1-6.2,1.1-7.3,4.4
	c-0.8,2.6-2.2,3.2-4.6,2.5c-1.1-4.9,0.7-8.4,5.5-9.3c3.7-0.7,7.6-1.1,11.4-0.7c7,0.7,11,4.7,11.4,12
	C499.5,259.8,499.2,268.6,499.2,277.5z M491.2,258.7c-2.9,0.3-5.3,0.3-7.7,0.8c-5.1,1.1-7.3,4.3-6.8,9.3c0.4,3.4,3.1,5.9,6.7,5.9
	c3.7,0.1,7.6-2.4,7.8-5.3C491.4,266.1,491.2,262.7,491.2,258.7z"/>
<path d="M458.4,260.1c-8.2,0-16.6-0.1-24.5-0.1c-0.9,4.8,2.1,11.9,6.1,14.1c4.7,2.6,10.1,0.7,15.9-5.4c0.5,0.4,1.1,0.9,1.7,1.4
	c-3.5,6-8.7,8.8-15.5,8.5c-6.8-0.3-11.8-3.4-14.6-9.6c-3.1-6.8-3-13.8,0-20.7c2.4-5.4,6.6-8.9,12.6-9.4c6-0.5,11.7,0.6,15.5,5.9
	C458.8,249.4,458.8,254.6,458.4,260.1z M450.8,256.5c0-3.9-0.4-7-1.7-10.1c-2.2-5.2-9.4-5.8-12.5-1.1c-2.3,3.3-2.9,7.1-2.6,11.2
	C439.4,256.5,444.7,256.5,450.8,256.5z"/>
<g>
	<path d="M159.4,376h3.7v19.6h-3.7V376z"/>
	<path d="M167.3,376h3.6l8.4,12.9V376h3.7v19.6h-3.6l-8.4-12.8v12.8h-3.7V376z"/>
	<path d="M185.5,376h10.8v3.7h-3.6v15.9H189v-15.9h-3.5V376z"/>
	<path d="M198.9,376h10.7v3.6h-7v3.5h7v3.6h-7v5.1h7v3.7h-10.7V376z"/>
	<path d="M213.3,376h3.9c2.2,0,3.7,0.2,4.6,0.6c0.9,0.4,1.7,1,2.2,1.9c0.6,0.9,0.8,2,0.8,3.2c0,1.3-0.3,2.4-0.9,3.2
		c-0.6,0.9-1.5,1.5-2.8,2l4.6,8.7h-4.1l-4.4-8.3h-0.3v8.3h-3.7V376z M217.1,383.6h1.2c1.2,0,2-0.2,2.4-0.5c0.4-0.3,0.7-0.8,0.7-1.5
		c0-0.4-0.1-0.8-0.3-1.1c-0.2-0.3-0.5-0.5-0.9-0.7c-0.4-0.1-1.1-0.2-2-0.2h-1V383.6z"/>
	<path d="M228.9,376h3.6l8.4,12.9V376h3.7v19.6H241l-8.4-12.8v12.8h-3.7V376z"/>
	<path d="M255,376h3.8l7.5,19.6h-3.9l-1.5-4h-8l-1.6,4h-3.9L255,376z M256.9,381.2l-2.6,6.7h5.2L256.9,381.2z"/>
	<path d="M267.3,376h10.8v3.7h-3.6v15.9h-3.8v-15.9h-3.5V376z"/>
	<path d="M280.4,376h3.7v19.6h-3.7V376z"/>
	<path d="M297.5,375.5c2.8,0,5.1,1,7.1,3s3,4.4,3,7.3c0,2.9-1,5.3-2.9,7.3c-2,2-4.4,3-7.2,3c-2.9,0-5.4-1-7.3-3s-2.9-4.4-2.9-7.2
		c0-1.9,0.5-3.6,1.4-5.2c0.9-1.6,2.1-2.8,3.7-3.7C294,375.9,295.7,375.5,297.5,375.5z M297.5,379.1c-1.8,0-3.3,0.6-4.6,1.9
		c-1.2,1.3-1.9,2.9-1.9,4.8c0,2.2,0.8,3.9,2.3,5.1c1.2,1,2.6,1.5,4.2,1.5c1.8,0,3.3-0.6,4.5-1.9s1.9-2.9,1.9-4.7
		c0-1.9-0.6-3.4-1.9-4.7C300.8,379.8,299.3,379.1,297.5,379.1z"/>
	<path d="M311.2,376h3.6l8.4,12.9V376h3.7v19.6h-3.6l-8.4-12.8v12.8h-3.7V376z"/>
	<path d="M337.3,376h3.8l7.5,19.6h-3.9l-1.5-4h-8l-1.6,4h-3.9L337.3,376z M339.2,381.2l-2.6,6.7h5.2L339.2,381.2z"/>
	<path d="M351.5,376h3.7v16h5.4v3.6h-9.2V376z"/>
	<path d="M377,376h3.8l7.5,19.6h-3.9l-1.5-4h-8l-1.6,4h-3.9L377,376z M379,381.2l-2.6,6.7h5.2L379,381.2z"/>
	<path d="M389.7,376h3.7l2.8,12.5l3.5-12.5h3.1l3.5,12.5l2.8-12.5h3.7l-4.4,19.6h-3.6l-3.6-12.7l-3.5,12.7h-3.5L389.7,376z"/>
	<path d="M421.7,376h3.8l7.5,19.6h-3.9l-1.5-4h-8l-1.6,4h-3.9L421.7,376z M423.6,381.2l-2.6,6.7h5.2L423.6,381.2z"/>
	<path d="M436.2,376h3.9c2.2,0,3.7,0.2,4.6,0.6c0.9,0.4,1.7,1,2.2,1.9c0.6,0.9,0.8,2,0.8,3.2c0,1.3-0.3,2.4-0.9,3.2
		c-0.6,0.9-1.5,1.5-2.8,2l4.6,8.7h-4.1l-4.4-8.3h-0.3v8.3h-3.7V376z M439.9,383.6h1.2c1.2,0,2-0.2,2.4-0.5c0.4-0.3,0.7-0.8,0.7-1.5
		c0-0.4-0.1-0.8-0.3-1.1c-0.2-0.3-0.5-0.5-0.9-0.7c-0.4-0.1-1.1-0.2-2-0.2h-1V383.6z"/>
	<path d="M451.7,376h4.4c2.8,0,5,0.4,6.3,1.1c1.4,0.7,2.5,1.9,3.4,3.4c0.9,1.6,1.3,3.4,1.3,5.6c0,1.5-0.2,2.9-0.8,4.2
		c-0.5,1.3-1.2,2.3-2.1,3.1c-0.9,0.8-1.8,1.4-2.9,1.7s-2.8,0.5-5.3,0.5h-4.5V376z M455.4,379.6v12.3h1.7c1.7,0,2.9-0.2,3.7-0.6
		c0.8-0.4,1.4-1,1.9-2c0.5-0.9,0.7-2.1,0.7-3.4c0-2.1-0.6-3.7-1.7-4.8c-1-1-2.7-1.5-5-1.5H455.4z"/>
</g>
</svg>
